
<svg xmlns="http://www.w3.org/2000/svg" xmlns:xlink="http://www.w3.org/1999/xlink" version="1.1"  width="860" height="451">
<defs id="dmw_defs" >
<svg id="fk_sym" viewBox="0 0 48.665 48.665" style="enable-background:new 0 0 48.665 48.665;" >
<g>
<path d="M40.332,31.592c-2.377,0-4.515,1-6.033,2.598l-17.737-8.686c0.061-0.406,0.103-0.82,0.103-1.246    c0-0.414-0.04-0.818-0.098-1.215l17.711-8.589c1.519,1.609,3.666,2.619,6.054,2.619c4.603,0,8.333-3.731,8.333-8.333    c0-4.603-3.73-8.333-8.333-8.333s-8.333,3.73-8.333,8.333c0,0.414,0.04,0.817,0.098,1.215l-17.709,8.589    c-1.519-1.609-3.666-2.619-6.054-2.619C3.73,15.925,0,19.656,0,24.258c0,4.603,3.73,8.333,8.333,8.333    c2.377,0,4.515-1,6.033-2.596l17.736,8.685c-0.062,0.406-0.104,0.82-0.104,1.245c0,4.604,3.73,8.333,8.333,8.333    s8.333-3.729,8.333-8.333C48.665,35.322,44.935,31.592,40.332,31.592z" fill="#13bf3b"/>
</g>
</svg>
<svg id="pk_sym" viewBox="0 0 480.509 480.509" style="enable-background:new 0 0 480.509 480.509;" >
<g>
<path d="M418.119,331.046c4.094,4.374,7.766,8.186,10.996,11.416c3.237,3.238,6.714,6.376,10.427,9.422   c3.71,3.042,6.427,4.568,8.135,4.568c3.241,0,9.517-4.661,18.843-13.99c9.328-9.321,13.989-15.604,13.989-18.842   c0-1.523-2.714-5.421-8.138-11.704c-5.421-6.276-12.364-13.702-20.838-22.271c-8.473-8.565-16.703-16.744-24.694-24.55   c-8.001-7.81-15.8-15.373-23.417-22.703c-7.611-7.327-11.992-11.56-13.135-12.703c-1.902-1.902-4.093-2.853-6.563-2.853   c-3.237,0-9.521,4.661-18.843,13.988c-9.328,9.322-13.989,15.605-13.989,18.843c0,1.711,1.522,4.421,4.568,8.138   c3.046,3.71,6.188,7.187,9.421,10.424c3.23,3.23,7.047,6.899,11.42,10.992c4.377,4.093,6.848,6.423,7.423,6.995l-27.408,27.404   L254.954,222.268c24.94-33.498,37.408-68.236,37.408-104.211c0-31.024-9.761-56.293-29.263-75.801   c-19.512-19.511-44.778-29.265-75.805-29.265c-30.454,0-60.244,9.042-89.363,27.119c-29.121,18.083-52.727,41.686-70.808,70.808   C9.042,140.038,0,169.828,0,200.28c0,31.029,9.753,56.286,29.265,75.803c19.511,19.517,44.777,29.27,75.801,29.27   c35.976,0,70.71-12.467,104.212-37.407l191.574,191.579c5.332,5.328,11.796,7.994,19.417,7.994c7.991,0,15.704-3.72,23.12-11.14   c7.426-7.426,11.143-15.129,11.143-23.127c0-7.617-2.666-14.092-7.994-19.417l-62.811-62.811l27.405-27.404   C411.699,324.195,414.033,326.666,418.119,331.046z M221.556,161.458c-10.656,10.657-23.601,15.987-38.828,15.987   c-7.996,0-15.896-1.812-23.7-5.43c3.617,7.808,5.426,15.706,5.426,23.7c0,15.229-5.327,28.171-15.987,38.828   c-10.66,10.655-23.606,15.986-38.831,15.986c-15.227,0-28.168-5.325-38.828-15.986c-10.657-10.657-15.987-23.599-15.987-38.828   c0-15.227,5.327-28.171,15.987-38.828C81.464,146.23,94.409,140.9,109.636,140.9c7.992,0,15.893,1.809,23.695,5.424   c-3.616-7.804-5.424-15.706-5.424-23.699c0-15.227,5.327-28.171,15.987-38.828c10.66-10.657,23.604-15.987,38.831-15.987   c15.227,0,28.171,5.327,38.828,15.987c10.657,10.66,15.987,23.601,15.987,38.828C237.539,137.852,232.209,150.797,221.556,161.458z   " fill="#ff8345"/>
</g>
</svg>
<svg id="uk_sym" viewBox="0 0 490 490" style="enable-background:new 0 0 490 490;" >
<g>
	<polygon points="236.99,11.41 0,246.348 236.99,478.678 236.99,350.609 129.864,245 236.99,139.391  " fill="#0064fb"/>
<polygon points="253.01,478.59 490,243.651 253.01,11.322 253.01,139.391 360.136,245 253.01,350.609  " fill="#0064fb"/>
</g>
</svg>
<svg id="link_sym" viewBox="0 0 1000 900" style="enable-background:new 0 0 1000 900;" >
<g>
<path fill="black" d="M660.224 422.656c6.976 16.192-0.512 35.008-16.768 42.048-16.128 6.976-34.944-0.448-41.984-16.768-8.448-19.776-20.736-37.696-36.224-53.248-64.64-64.64-177.344-64.64-241.92 0l-145.216 145.28c-66.688 66.688-66.688 175.232 0 241.984 66.688 66.688 175.104 66.752 241.92 0l92.8-92.864c12.48-12.48 32.768-12.48 45.248 0s12.48 32.768 0 45.248l-92.8 92.864c-91.648 91.648-240.832 91.52-332.416 0-91.712-91.648-91.712-240.832 0-332.48l145.216-145.28c44.352-44.416 103.424-68.864 166.272-68.864s121.792 24.448 166.208 68.864c21.248 21.312 38.016 45.952 49.664 73.216zM891.136 401.344l-145.216 145.216c-88.768 88.832-243.712 88.832-332.416 0-21.312-21.312-38.080-45.952-49.728-73.216-7.040-16.256 0.448-35.072 16.704-42.048 16.064-6.784 35.008 0.512 41.984 16.768 8.512 19.776 20.8 37.696 36.288 53.248 64.64 64.64 177.344 64.64 241.92 0l145.216-145.216c66.688-66.688 66.688-175.232 0-241.984-66.752-66.624-175.168-66.688-241.92 0l-92.8 92.864c-12.48 12.48-32.768 12.48-45.248 0s-12.48-32.768 0-45.248l92.8-92.864c45.824-45.824 105.984-68.736 166.208-68.736s120.448 22.912 166.272 68.736c91.584 91.648 91.584 240.768-0.064 332.48z" />
</g>
</svg>
<clipPath clipPathUnits="userSpaceOnUse" id="clipPath7_0_">
<rect x="0" y="0" width="170" height="125" />
</clipPath>
<clipPath clipPathUnits="userSpaceOnUse" id="clipPath4_0_">
<rect x="0" y="0" width="161" height="101" />
</clipPath>
<clipPath clipPathUnits="userSpaceOnUse" id="clipPath5_0_">
<rect x="0" y="0" width="168" height="121" />
</clipPath>
<clipPath clipPathUnits="userSpaceOnUse" id="clipPath6_0_">
<rect x="0" y="0" width="171" height="106" />
</clipPath>
<clipPath clipPathUnits="userSpaceOnUse" id="clipPath2_0_">
<rect x="0" y="0" width="145" height="98" />
</clipPath>
<clipPath clipPathUnits="userSpaceOnUse" id="clipPath3_0_">
<rect x="0" y="0" width="143" height="81" />
</clipPath>
<clipPath clipPathUnits="userSpaceOnUse" id="clipPath9_0_">
<rect x="0" y="0" width="148" height="94" />
</clipPath>
<clipPath clipPathUnits="userSpaceOnUse" id="clipPath1_0_">
<rect x="0" y="0" width="155" height="90" />
</clipPath>
<clipPath clipPathUnits="userSpaceOnUse" id="clipPath8_0_">
<rect x="0" y="0" width="183" height="111" />
</clipPath>
</defs>
<g stroke-linecap="butt" >
<path stroke="rgb(0,0,0)" fill="none" stroke-opacity="1.0"  stroke-dasharray="8,8" stroke-width="1" d="M745 280 L745 261" />
<path stroke="rgb(0,0,0)" fill="none" stroke-opacity="1.0"  stroke-width="1" d="M745 243 L745 261" />
<path stroke-dasharray="none" d="M751.0 243.0 L745.0 255.0 L739.0 243.0" fill="white" stroke-width="1" stroke-opacity="1.0" stroke="rgb(0,0,0)" />
</g>
<g stroke-linecap="butt" >
<path stroke="rgb(0,0,0)" fill="none" stroke-opacity="1.0"  stroke-dasharray="8,8" stroke-width="1" d="M212 245 L244 245" />
<path stroke="rgb(0,0,0)" fill="none" stroke-opacity="1.0"  stroke-width="1" d="M277 245 L244 245" />
<path stroke-dasharray="none" d="M277.0 251.0 L265.0 245.0 L277.0 239.0" fill="white" stroke-width="1" stroke-opacity="1.0" stroke="rgb(0,0,0)" />
</g>
<g stroke-linecap="butt" >
<path stroke="rgb(0,0,0)" fill="none" stroke-opacity="1.0"  stroke-dasharray="8,8" stroke-width="1" d="M759 153 L759 133" />
<path stroke="rgb(0,0,0)" fill="none" stroke-opacity="1.0"  stroke-width="1" d="M759 114 L759 133" />
<path stroke-dasharray="none" d="M765.0 114.0 L759.0 126.0 L753.0 114.0" fill="white" stroke-width="1" stroke-opacity="1.0" stroke="rgb(0,0,0)" />
</g>
<g stroke-linecap="butt" >
<path stroke="rgb(0,0,0)" fill="none" stroke-opacity="1.0"  stroke-dasharray="8,8" stroke-width="1" d="M408 276 L408 308" />
<path stroke="rgb(0,0,0)" fill="none" stroke-opacity="1.0"  stroke-width="1" d="M408 340 L408 308" />
<path stroke-dasharray="none" d="M402.0 340.0 L408.0 328.0 L414.0 340.0" fill="white" stroke-width="1" stroke-opacity="1.0" stroke="rgb(0,0,0)" />
</g>
<g stroke-linecap="butt" >
<path stroke="rgb(0,0,0)" fill="none" stroke-opacity="1.0"  stroke-dasharray="8,8" stroke-width="1" d="M511 224 L511 282" />
<path stroke="rgb(0,0,0)" fill="none" stroke-opacity="1.0"  stroke-width="1" d="M511 340 L511 282" />
<path stroke-dasharray="none" d="M505.0 340.0 L511.0 328.0 L517.0 340.0" fill="white" stroke-width="1" stroke-opacity="1.0" stroke="rgb(0,0,0)" />
</g>
<g stroke-linecap="butt" >
<path stroke="rgb(0,0,0)" fill="none" stroke-opacity="1.0"  stroke-dasharray="8,8" stroke-width="1" d="M705 188 L672 188" />
<path stroke="rgb(0,0,0)" fill="none" stroke-opacity="1.0"  stroke-width="1" d="M639 188 L672 188" />
<path stroke-dasharray="none" d="M639.0 182.0 L651.0 188.0 L639.0 194.0" fill="white" stroke-width="1" stroke-opacity="1.0" stroke="rgb(0,0,0)" />
</g>
<g stroke-linecap="butt" >
<path stroke="rgb(0,0,0)" fill="none" stroke-opacity="1.0"  stroke-dasharray="8,8" stroke-width="1" d="M343 114 L343 134" />
<path stroke="rgb(0,0,0)" fill="none" stroke-opacity="1.0"  stroke-width="1" d="M343 155 L343 134" />
<path stroke-dasharray="none" d="M337.0 155.0 L343.0 143.0 L349.0 155.0" fill="white" stroke-width="1" stroke-opacity="1.0" stroke="rgb(0,0,0)" />
</g>
<g stroke-linecap="butt" >
<path stroke="rgb(0,0,0)" fill="none" stroke-opacity="1.0"  stroke-dasharray="8,8" stroke-width="1" d="M264 97 L220 97" />
<path stroke="rgb(0,0,0)" fill="none" stroke-opacity="1.0"  stroke-width="1" d="M176 97 L220 97" />
<path stroke-dasharray="none" d="M176.0 91.0 L188.0 97.0 L176.0 103.0" fill="white" stroke-width="1" stroke-opacity="1.0" stroke="rgb(0,0,0)" />
</g>
<g stroke-linecap="butt" >
<path stroke="rgb(0,0,0)" fill="none" stroke-opacity="1.0"  stroke-dasharray="8,8" stroke-width="1" d="M277 171 L226 171" />
<path stroke="rgb(0,0,0)" fill="none" stroke-opacity="1.0"  stroke-width="1" d="M176 171 L226 171" />
<path stroke-dasharray="none" d="M176.0 165.0 L188.0 171.0 L176.0 177.0" fill="white" stroke-width="1" stroke-opacity="1.0" stroke="rgb(0,0,0)" />
</g>
<g  fill="rgb(164,225,255)" stroke="rgb(0,0,255)" fill-opacity="1.0" stroke-opacity="1.0" clip-path="url(#clipPath1_0_)" transform="translate(705,153)" >
<rect x="0" y="0" width="154" height="89" rx="20" ry="20" />
<text id="F213F08A-11A3B69D9C63" x="63" y="14" fill="rgb(0,0,255)" font-weight="bold"  fill-opacity="1.0" font-size="10" stroke="none">
brand
</text>
<text x="16" y="32" fill="rgb(255,0,0)" fill-opacity="1.0" font-size="10" stroke="none">
*
</text>
<text x="2" y="32" fill="rgb(0,0,255)" fill-opacity="1.0" font-size="10" stroke="none">
P
</text>
<text x="26" y="32" fill="rgb(0,0,0)" fill-opacity="1.0" font-size="10" stroke="none">
id
</text>
<text x="16" y="46" fill="rgb(255,0,0)" fill-opacity="1.0" font-size="10" stroke="none">
*
</text>
<text x="26" y="46" fill="rgb(0,0,0)" fill-opacity="1.0" font-size="10" stroke="none">
name
</text>
</g>
<g  fill="rgb(164,225,255)" stroke="rgb(0,0,255)" fill-opacity="1.0" stroke-opacity="1.0" clip-path="url(#clipPath2_0_)" transform="translate(264,16)" >
<rect x="0" y="0" width="144" height="97" rx="20" ry="20" />
<text id="8C6817C9-2E82245752FE" x="49" y="14" fill="rgb(0,0,255)" font-weight="bold"  fill-opacity="1.0" font-size="10" stroke="none">
customer
</text>
<text x="16" y="32" fill="rgb(255,0,0)" fill-opacity="1.0" font-size="10" stroke="none">
*
</text>
<text x="2" y="32" fill="rgb(0,0,255)" fill-opacity="1.0" font-size="10" stroke="none">
P
</text>
<text x="26" y="32" fill="rgb(0,0,0)" fill-opacity="1.0" font-size="10" stroke="none">
cust id
</text>
<text x="16" y="46" fill="rgb(255,0,0)" fill-opacity="1.0" font-size="10" stroke="none">
*
</text>
<text x="26" y="46" fill="rgb(0,0,0)" fill-opacity="1.0" font-size="10" stroke="none">
cust name
</text>
<text x="16" y="60" fill="rgb(255,0,0)" fill-opacity="1.0" font-size="10" stroke="none">
o
</text>
<text x="26" y="60" fill="rgb(0,0,0)" fill-opacity="1.0" font-size="10" stroke="none">
med card
</text>
<text x="16" y="74" fill="rgb(255,0,0)" fill-opacity="1.0" font-size="10" stroke="none">
o
</text>
<text x="26" y="74" fill="rgb(0,0,0)" fill-opacity="1.0" font-size="10" stroke="none">
cust add
</text>
</g>
<g  fill="rgb(164,225,255)" stroke="rgb(0,0,255)" fill-opacity="1.0" stroke-opacity="1.0" clip-path="url(#clipPath3_0_)" transform="translate(69,215)" >
<rect x="0" y="0" width="142" height="80" rx="20" ry="20" />
<text id="A0D43741-D960686CF42F" x="56" y="14" fill="rgb(0,0,255)" font-weight="bold"  fill-opacity="1.0" font-size="10" stroke="none">
doctor
</text>
<text x="16" y="32" fill="rgb(255,0,0)" fill-opacity="1.0" font-size="10" stroke="none">
*
</text>
<text x="2" y="32" fill="rgb(0,0,255)" fill-opacity="1.0" font-size="10" stroke="none">
P
</text>
<text x="26" y="32" fill="rgb(0,0,0)" fill-opacity="1.0" font-size="10" stroke="none">
doc id
</text>
<text x="16" y="46" fill="rgb(255,0,0)" fill-opacity="1.0" font-size="10" stroke="none">
*
</text>
<text x="26" y="46" fill="rgb(0,0,0)" fill-opacity="1.0" font-size="10" stroke="none">
doc name
</text>
<text x="16" y="60" fill="rgb(255,0,0)" fill-opacity="1.0" font-size="10" stroke="none">
o
</text>
<text x="26" y="60" fill="rgb(0,0,0)" fill-opacity="1.0" font-size="10" stroke="none">
doc add
</text>
</g>
<g  fill="rgb(164,225,255)" stroke="rgb(0,0,255)" fill-opacity="1.0" stroke-opacity="1.0" clip-path="url(#clipPath4_0_)" transform="translate(652,13)" >
<rect x="0" y="0" width="160" height="100" rx="20" ry="20" />
<text id="448C49EF-A9AFDC312FF5" x="58" y="14" fill="rgb(0,0,255)" font-weight="bold"  fill-opacity="1.0" font-size="10" stroke="none">
drug type
</text>
<text x="16" y="32" fill="rgb(255,0,0)" fill-opacity="1.0" font-size="10" stroke="none">
*
</text>
<text x="2" y="32" fill="rgb(0,0,255)" fill-opacity="1.0" font-size="10" stroke="none">
P
</text>
<text x="26" y="32" fill="rgb(0,0,0)" fill-opacity="1.0" font-size="10" stroke="none">
drug name
</text>
<text x="16" y="46" fill="rgb(255,0,0)" fill-opacity="1.0" font-size="10" stroke="none">
*
</text>
<text x="26" y="46" fill="rgb(0,0,0)" fill-opacity="1.0" font-size="10" stroke="none">
dispense inst
</text>
<text x="16" y="60" fill="rgb(255,0,0)" fill-opacity="1.0" font-size="10" stroke="none">
*
</text>
<text x="26" y="60" fill="rgb(0,0,0)" fill-opacity="1.0" font-size="10" stroke="none">
use instruct
</text>
</g>
<g  fill="rgb(164,225,255)" stroke="rgb(0,0,255)" fill-opacity="1.0" stroke-opacity="1.0" clip-path="url(#clipPath5_0_)" transform="translate(277,155)" >
<rect x="0" y="0" width="167" height="120" rx="20" ry="20" />
<text id="6A51025D-2E6CEAC9D83B" x="54" y="14" fill="rgb(0,0,255)" font-weight="bold"  fill-opacity="1.0" font-size="10" stroke="none">
prescription
</text>
<text x="16" y="32" fill="rgb(255,0,0)" fill-opacity="1.0" font-size="10" stroke="none">
*
</text>
<text x="2" y="32" fill="rgb(0,0,255)" fill-opacity="1.0" font-size="10" stroke="none">
P
</text>
<text x="26" y="32" fill="rgb(0,0,0)" fill-opacity="1.0" font-size="10" stroke="none">
presc id
</text>
<text x="16" y="46" fill="rgb(255,0,0)" fill-opacity="1.0" font-size="10" stroke="none">
*
</text>
<text x="26" y="46" fill="rgb(0,0,0)" fill-opacity="1.0" font-size="10" stroke="none">
drug type
</text>
<text x="16" y="60" fill="rgb(255,0,0)" fill-opacity="1.0" font-size="10" stroke="none">
*
</text>
<text x="26" y="60" fill="rgb(0,0,0)" fill-opacity="1.0" font-size="10" stroke="none">
dosage
</text>
<text x="16" y="74" fill="rgb(255,0,0)" fill-opacity="1.0" font-size="10" stroke="none">
*
</text>
<text x="26" y="74" fill="rgb(0,0,0)" fill-opacity="1.0" font-size="10" stroke="none">
duration
</text>
</g>
<g  fill="rgb(164,225,255)" stroke="rgb(0,0,255)" fill-opacity="1.0" stroke-opacity="1.0" clip-path="url(#clipPath6_0_)" transform="translate(5,81)" >
<rect x="0" y="0" width="170" height="105" rx="20" ry="20" />
<text id="78C2DEC7-4189FBC059ED" x="47" y="14" fill="rgb(0,0,255)" font-weight="bold"  fill-opacity="1.0" font-size="10" stroke="none">
prescription log
</text>
<text x="16" y="32" fill="rgb(255,0,0)" fill-opacity="1.0" font-size="10" stroke="none">
o
</text>
<text x="26" y="32" fill="rgb(0,0,0)" fill-opacity="1.0" font-size="10" stroke="none">
add by username
</text>
<text x="16" y="46" fill="rgb(255,0,0)" fill-opacity="1.0" font-size="10" stroke="none">
o
</text>
<text x="26" y="46" fill="rgb(0,0,0)" fill-opacity="1.0" font-size="10" stroke="none">
add timestamp
</text>
</g>
<g  fill="rgb(164,225,255)" stroke="rgb(0,0,255)" fill-opacity="1.0" stroke-opacity="1.0" clip-path="url(#clipPath7_0_)" transform="translate(469,99)" >
<rect x="0" y="0" width="169" height="124" rx="20" ry="20" />
<text id="184044F2-086BFDD058EF" x="66" y="14" fill="rgb(0,0,255)" font-weight="bold"  fill-opacity="1.0" font-size="10" stroke="none">
product
</text>
<text x="16" y="32" fill="rgb(255,0,0)" fill-opacity="1.0" font-size="10" stroke="none">
*
</text>
<text x="2" y="32" fill="rgb(0,0,255)" fill-opacity="1.0" font-size="10" stroke="none">
P
</text>
<text x="26" y="32" fill="rgb(0,0,0)" fill-opacity="1.0" font-size="10" stroke="none">
stock code
</text>
<text x="16" y="46" fill="rgb(255,0,0)" fill-opacity="1.0" font-size="10" stroke="none">
*
</text>
<text x="26" y="46" fill="rgb(0,0,0)" fill-opacity="1.0" font-size="10" stroke="none">
cost
</text>
<text x="16" y="60" fill="rgb(255,0,0)" fill-opacity="1.0" font-size="10" stroke="none">
o
</text>
<text x="26" y="60" fill="rgb(0,0,0)" fill-opacity="1.0" font-size="10" stroke="none">
prod description
</text>
<text x="16" y="74" fill="rgb(255,0,0)" fill-opacity="1.0" font-size="10" stroke="none">
*
</text>
<text x="26" y="74" fill="rgb(0,0,0)" fill-opacity="1.0" font-size="10" stroke="none">
pack size
</text>
<text x="16" y="88" fill="rgb(255,0,0)" fill-opacity="1.0" font-size="10" stroke="none">
*
</text>
<text x="26" y="88" fill="rgb(0,0,0)" fill-opacity="1.0" font-size="10" stroke="none">
price
</text>
</g>
<g  fill="rgb(164,225,255)" stroke="rgb(0,0,255)" fill-opacity="1.0" stroke-opacity="1.0" clip-path="url(#clipPath8_0_)" transform="translate(371,340)" >
<rect x="0" y="0" width="182" height="110" rx="20" ry="20" />
<text id="FDED2158-6D30B158AFFE" x="78" y="14" fill="rgb(0,0,255)" font-weight="bold"  fill-opacity="1.0" font-size="10" stroke="none">
sales
</text>
<text x="16" y="32" fill="rgb(255,0,0)" fill-opacity="1.0" font-size="10" stroke="none">
*
</text>
<text x="26" y="32" fill="rgb(0,0,0)" fill-opacity="1.0" font-size="10" stroke="none">
prod quantity
</text>
<text x="16" y="46" fill="rgb(255,0,0)" fill-opacity="1.0" font-size="10" stroke="none">
o
</text>
<text x="26" y="46" fill="rgb(0,0,0)" fill-opacity="1.0" font-size="10" stroke="none">
purch date
</text>
<text x="16" y="60" fill="rgb(255,0,0)" fill-opacity="1.0" font-size="10" stroke="none">
o
</text>
<text x="26" y="60" fill="rgb(0,0,0)" fill-opacity="1.0" font-size="10" stroke="none">
purch time
</text>
</g>
<g  fill="rgb(164,225,255)" stroke="rgb(0,0,255)" fill-opacity="1.0" stroke-opacity="1.0" clip-path="url(#clipPath9_0_)" transform="translate(638,280)" >
<rect x="0" y="0" width="147" height="93" rx="20" ry="20" />
<text id="A14D74B5-4F14F6200D55" x="54" y="14" fill="rgb(0,0,255)" font-weight="bold"  fill-opacity="1.0" font-size="10" stroke="none">
supplier
</text>
<text x="16" y="32" fill="rgb(255,0,0)" fill-opacity="1.0" font-size="10" stroke="none">
*
</text>
<text x="2" y="32" fill="rgb(0,0,255)" fill-opacity="1.0" font-size="10" stroke="none">
P
</text>
<text x="26" y="32" fill="rgb(0,0,0)" fill-opacity="1.0" font-size="10" stroke="none">
supp id
</text>
<text x="16" y="46" fill="rgb(255,0,0)" fill-opacity="1.0" font-size="10" stroke="none">
*
</text>
<text x="26" y="46" fill="rgb(0,0,0)" fill-opacity="1.0" font-size="10" stroke="none">
supp name
</text>
<text x="16" y="60" fill="rgb(255,0,0)" fill-opacity="1.0" font-size="10" stroke="none">
o
</text>
<text x="26" y="60" fill="rgb(0,0,0)" fill-opacity="1.0" font-size="10" stroke="none">
supp add
</text>
</g>

</svg>